<svg width="27" height="22" viewBox="0 0 27 22" fill="none" xmlns="http://www.w3.org/2000/svg">
    <path d="M13.6825 11.9891C13.7328 11.1141 14.1616 10.342 14.8091 9.79508C15.4884 9.2308 16.3453 8.92477 17.2284 8.93102C18.1581 8.93102 19.0124 9.25914 19.6467 9.79508C20.2942 10.342 20.7219 11.1141 20.7711 11.988C20.8203 12.8882 20.4594 13.7227 19.825 14.3429C19.1263 15.0102 18.1946 15.3783 17.2284 15.3688C16.2616 15.3784 15.3292 15.0103 14.6297 14.3429C13.9953 13.7227 13.6333 12.8882 13.6825 11.9891ZM8.03876 13.7577C8.04532 14.1012 8.1547 14.7662 8.31876 15.2868C8.67294 16.4069 9.26759 17.436 10.0611 18.3023C10.9121 19.2379 11.9508 19.9837 13.1094 20.4909C14.3703 21.0467 15.7345 21.33 17.1125 21.3221C18.4903 21.3248 19.8532 21.0371 21.1124 20.4777C22.2701 19.9657 23.3078 19.2168 24.1584 18.2793C24.9507 17.4102 25.5448 16.3795 25.8997 15.2584C26.241 14.1722 26.3344 13.0233 26.1731 11.8962C26.0196 10.8164 25.641 9.78087 25.0619 8.85664C24.5254 7.9969 23.8394 7.24012 23.0363 6.62211H23.0384L14.8375 0.325393L14.8156 0.308987C14.2775 -0.104451 13.373 -0.102264 12.7813 0.311174C12.183 0.728986 12.1152 1.42133 12.6467 1.85883L12.6456 1.85992L16.0647 4.64133L5.64126 4.65227H5.62704C4.76517 4.65336 3.9372 5.21883 3.77313 5.93414C3.6047 6.66149 4.18876 7.26524 5.08563 7.26852V7.2707L10.3684 7.25977L0.940322 14.4971L0.903134 14.5245C0.0139155 15.2048 -0.272647 16.3379 0.287353 17.0543C0.856103 17.7838 2.0647 17.7849 2.96376 17.0587L8.10876 12.8488C8.10876 12.8488 8.0322 13.4176 8.03876 13.7577ZM21.2622 15.662C20.2013 16.7426 18.7181 17.3551 17.1114 17.3573C15.5036 17.3616 14.0194 16.7535 12.9584 15.6751C12.4575 15.1721 12.071 14.567 11.8253 13.901C11.6002 13.2744 11.5112 12.607 11.5644 11.9433C11.6176 11.2796 11.8117 10.6349 12.1338 10.0521C12.4541 9.47607 12.8823 8.96699 13.3949 8.55258C14.4252 7.71258 15.7366 7.25867 17.1092 7.25649C18.483 7.2543 19.7944 7.70492 20.8258 8.54164C21.3508 8.9693 21.7774 9.47571 22.0858 10.0368C22.4051 10.6118 22.5996 11.2476 22.6567 11.9027C22.7147 12.5742 22.6255 13.2501 22.3953 13.8835C22.1496 14.5505 21.7625 15.157 21.2622 15.662Z" fill="#EEEEEE"/>
</svg>
