<svg width="27" height="27" viewBox="0 0 27 27" fill="none" xmlns="http://www.w3.org/2000/svg">
<g clip-path="url(#clip0_401_201)">
<path d="M7.16531 17.4546C6.97131 17.5372 6.69979 17.649 6.48097 17.7179C6.01749 17.8639 5.64568 17.923 5.26465 17.9808C5.72279 19.4498 7.51764 20.8923 9.61066 20.7561C11.5837 20.7561 12.9497 19.7835 13.6765 18.3727C11.6155 18.3436 8.61316 19.2017 7.16531 17.4546ZM25.9987 17.6968C25.278 17.7827 24.7633 17.6377 23.5824 18.0167C20.7238 19.1941 17.8948 18.1955 16.9941 18.0003C16.6984 17.9695 16.5628 17.5368 15.956 18.2528L15.6601 18.6016C17.0571 19.9762 18.9721 20.7652 20.9552 20.7652C23.6253 20.7652 25.4306 19.4756 26.0304 17.7241L25.9987 17.6968Z" fill="#EEEEEE"/>
<path d="M26.1504 15.4025C24.5804 14.3121 24.2664 15.1004 23.4791 15.9515C23.5519 16.1377 23.5913 16.3493 23.5913 16.5954C23.5913 17.7447 22.6676 18.4885 21.0229 18.4885C19.6482 18.4885 18.2289 17.8125 17.1701 16.821L15.956 18.2524C17.5999 18.3263 19.2639 18.7508 20.9283 18.6852C22.7498 18.613 25.156 18.0363 25.9989 17.6967L26.0309 17.7237C26.1768 17.2952 26.2509 16.8455 26.2501 16.3928C26.2501 16.0345 26.2152 15.7058 26.1504 15.4025ZM14.2916 15.4263C13.402 14.7477 12.5492 14.9788 11.7316 15.9375V16.1016C11.7316 17.4008 10.6818 18.4538 9.38693 18.4538C8.98957 18.4539 8.59872 18.3528 8.25118 18.1602C7.90364 17.9675 7.61084 17.6896 7.40034 17.3526C7.40034 17.3526 7.29801 17.3977 7.16553 17.4541C7.7783 18.2264 8.53135 18.6257 10.0258 18.6852C11.2429 18.7333 12.46 18.5201 13.6772 18.3724C14.0838 17.5837 14.2916 16.6584 14.2916 15.6881V15.4263Z" fill="#EEEEEE"/>
<path d="M14.2914 12.6408C13.4605 11.9097 12.6145 11.7622 11.7314 12.8779V15.9378C12.5876 15.7385 13.4418 15.5359 14.2914 15.4266V12.6408ZM24.199 12.8631C22.9209 12.3037 19.0942 12.8633 18.4176 13.1197C18.6971 13.2844 18.9879 13.4293 19.2878 13.5532L21.2932 14.4322C22.3717 14.8817 23.1912 15.217 23.4789 15.9518C24.3068 15.8316 25.0207 15.6667 25.4959 15.5574L26.1501 15.4028C25.8993 14.2316 25.1885 13.4453 24.199 12.8631Z" fill="#EEEEEE"/>
<path d="M16.3172 9.81896C16.3845 11.444 17.3254 12.4714 18.4227 13.1213C19.2603 13.2866 20.0978 13.43 20.9354 13.43C22.1045 13.43 23.2724 13.1515 24.2002 12.8631C23.9026 12.6899 23.5939 12.5364 23.2761 12.4038L21.2934 11.5699C20.314 11.1708 19.3934 10.8152 19.0714 10.0923C17.0957 9.08908 18.4209 8.45601 16.3176 9.81916L16.3172 9.81896ZM14.2916 10.0158C13.5402 9.49739 12.6924 9.65264 11.7314 10.4853L11.7317 12.8791C12.5848 12.7936 13.4383 12.68 14.2916 12.6404V10.0158Z" fill="#EEEEEE"/>
<path d="M17.1996 7.19356C16.6357 7.87134 16.3137 8.7095 16.3137 9.63194C16.3137 9.6951 16.3151 9.75745 16.3176 9.81897C17.231 9.80995 18.15 9.91126 19.0714 10.0927C18.9891 9.90497 18.9478 9.7018 18.9502 9.49679C18.9502 8.41501 19.8513 7.76142 21.2485 7.76142C22.5099 7.76142 23.5241 8.23474 24.4477 9.02327L25.4286 7.81392C22.5622 6.92798 20.0002 6.37079 17.2001 7.19336L17.1996 7.19356ZM14.2916 7.7727C13.2343 6.84411 12.4226 7.52907 11.7314 8.82475V10.4855C12.585 10.3532 13.4381 10.16 14.2916 10.0158V7.7727Z" fill="#EEEEEE"/>
<path d="M11.7314 5.48556V8.82505C12.585 8.53691 13.4381 8.11076 14.2916 7.77259V5.48556H11.7314ZM21.2481 5.48556C19.5133 5.48556 18.0692 6.14898 17.1999 7.19304C18.4371 7.19775 19.6825 7.44774 20.9282 7.59643C22.7101 7.8093 24.4859 7.81381 25.4282 7.81381L25.7998 7.35587C24.6505 6.20641 22.9831 5.48556 21.2481 5.48556Z" fill="#EEEEEE"/>
<path d="M0 5.48535V16.7651H4.27034C5.38966 16.7651 6.24688 16.5877 7.043 16.1861C7.04156 16.1584 7.04156 16.1301 7.04156 16.102C7.04156 14.8029 8.09156 13.7502 9.38684 13.7502C9.42519 13.7502 9.46312 13.751 9.50106 13.7531C9.90732 12.926 10.0712 12.1059 10.0712 11.0284C10.0712 9.91668 9.862 8.94912 9.44282 8.11158C9.00785 7.28983 8.37929 6.64527 7.54175 6.1777C6.70339 5.71073 5.68846 5.48535 4.47973 5.48535H0ZM2.70703 7.9022H4.33474C5.28568 7.9022 6.01063 8.17639 6.49421 8.74035C6.97758 9.30411 7.21916 10.0775 7.21916 11.0766C7.21916 12.0917 6.96097 12.8817 6.4616 13.4617C5.96224 14.0578 5.22088 14.3478 4.23773 14.3478H2.70724L2.70703 7.9022ZM9.3936 14.6206C9.1965 14.6165 9.00057 14.6519 8.8173 14.7245C8.63403 14.7972 8.4671 14.9057 8.32628 15.0437C8.18547 15.1816 8.0736 15.3463 7.99722 15.5281C7.92085 15.7098 7.88152 15.905 7.88152 16.1021C7.88152 16.2993 7.92085 16.4945 7.99722 16.6762C8.0736 16.858 8.18547 17.0226 8.32628 17.1606C8.4671 17.2986 8.63403 17.4071 8.8173 17.4797C9.00057 17.5524 9.1965 17.5877 9.3936 17.5837C9.7823 17.5773 10.1529 17.4183 10.4255 17.1411C10.6981 16.864 10.8508 16.4908 10.8508 16.102C10.8508 15.7133 10.6981 15.3401 10.4255 15.0629C10.1529 14.7858 9.7823 14.627 9.3936 14.6206Z" fill="#EEEEEE"/>
</g>
<defs>
<clipPath id="clip0_401_201">
<rect width="26.25" height="26.25" fill="white"/>
</clipPath>
</defs>
</svg>
