<svg width="27" height="27" viewBox="0 0 27 27" fill="none" xmlns="http://www.w3.org/2000/svg">
    <path d="M12.9595 20.5406H13.6048C14.0642 20.5406 14.4967 20.3263 14.7746 19.9604L18.8679 14.5753L22.9613 19.9604C23.2391 20.3257 23.6717 20.5406 24.131 20.5406H24.7763L19.5542 13.6719L24.5423 7.10938H23.897C23.4376 7.10938 23.005 7.32375 22.7272 7.68961L18.8674 12.7679L15.007 7.68906C14.7292 7.32375 14.2966 7.10938 13.8372 7.10938H13.1919L18.1799 13.6719L12.9595 20.5406Z" fill="#EEEEEE"/>
    <path d="M13.125 14.2186V12.578C13.125 8.92756 9.87383 6.03678 6.10914 6.64326C3.17844 7.11522 1.09375 9.76537 1.09375 12.7333V13.1248V14.2186V14.2962C1.09375 17.8799 3.70617 20.7417 7.03719 20.7811C9.82188 20.8139 12.1718 18.9523 12.8926 16.4066H12.3304C11.9913 16.4066 11.684 16.6008 11.5369 16.9059C10.5859 18.8719 8.37102 20.1117 5.94344 19.5539C3.70563 19.0393 2.1875 16.9426 2.1875 14.6468V14.2186H13.125ZM2.1875 12.9662C2.1875 10.3915 3.72094 8.28662 5.97406 7.78295C9.18641 7.06545 12.0312 9.4892 12.0312 12.578V13.1248H2.1875V12.9662Z" fill="#EEEEEE"/>
</svg>
