<svg width="28" height="27" viewBox="0 0 28 27" fill="none" xmlns="http://www.w3.org/2000/svg">
    <path fill-rule="evenodd" clip-rule="evenodd" d="M0.968262 9.49997C0.968262 6.17468 0.968262 4.51203 1.61541 3.24193C2.18466 2.12472 3.09298 1.2164 4.21019 0.647147C5.48029 0 7.14295 0 10.4682 0H17.7183C21.0436 0 22.7063 0 23.9763 0.647147C25.0935 1.2164 26.0019 2.12472 26.5711 3.24193C27.2183 4.51203 27.2183 6.17468 27.2183 9.49997V16.75C27.2183 20.0753 27.2183 21.738 26.5711 23.008C26.0019 24.1252 25.0935 25.0336 23.9763 25.6028C22.7063 26.25 21.0436 26.25 17.7183 26.25H10.4682C7.14295 26.25 5.48029 26.25 4.21019 25.6028C3.09298 25.0336 2.18466 24.1252 1.61541 23.008C0.968262 21.738 0.968262 20.0753 0.968262 16.75V9.49997ZM13.6889 16.4964H9.62114L8.79351 19.1333C8.77054 19.2313 8.68036 19.3006 8.5822 19.2958H6.52189C6.4044 19.2958 6.36332 19.2296 6.39863 19.0971L9.92048 8.69405C9.95573 8.58568 9.99098 8.4623 10.0261 8.32383C10.0723 8.0828 10.0958 7.83793 10.0966 7.5924C10.0865 7.51983 10.1503 7.45575 10.2198 7.46591H13.0198C13.1018 7.46591 13.1487 7.49602 13.1606 7.55621L17.158 19.1152C17.1931 19.2357 17.158 19.2959 17.0523 19.2958H14.763C14.6828 19.305 14.6061 19.2499 14.587 19.1694L13.6889 16.4964ZM10.2551 14.2207H13.0374C12.8653 13.6326 12.6849 13.0475 12.5045 12.4624C12.2057 11.4933 11.9069 10.5245 11.6462 9.54296C11.3884 10.444 11.1173 11.343 10.8486 12.2336C10.6471 12.9016 10.447 13.5648 10.2551 14.2207ZM19.0094 9.28781C19.1763 9.35625 19.3554 9.38785 19.535 9.38044C19.7214 9.38953 19.9076 9.35888 20.0819 9.29053C20.256 9.2221 20.4147 9.11747 20.5475 8.98313C20.6746 8.84625 20.7737 8.68463 20.8387 8.50781C20.9038 8.331 20.9335 8.14247 20.9261 7.95366C20.9332 7.77047 20.9049 7.58756 20.843 7.41558C20.781 7.24358 20.6866 7.0858 20.5651 6.95126C20.3245 6.6924 19.9929 6.56296 19.5702 6.56296C19.3904 6.55822 19.2114 6.59008 19.0437 6.65674C18.8759 6.72339 18.7227 6.82349 18.5929 6.95126C18.4619 7.08038 18.3588 7.23639 18.2905 7.40911C18.2222 7.58185 18.1903 7.76738 18.1966 7.95366C18.1891 8.14181 18.2179 8.3296 18.2814 8.50622C18.3449 8.68294 18.4418 8.84494 18.5665 8.98313C18.6915 9.1155 18.8425 9.21938 19.0094 9.28781ZM18.3199 10.4822V19.1153C18.3199 19.2357 18.3728 19.2959 18.4784 19.2959H20.6268C20.7207 19.296 20.7676 19.2358 20.7676 19.1153V10.4822C20.7675 10.3738 20.7206 10.3196 20.6268 10.3196H18.4608C18.3667 10.3196 18.3199 10.3738 18.3199 10.4822Z" fill="#EEEEEE"/>
</svg>
