<svg width="24" height="27" viewBox="0 0 24 27" fill="none" xmlns="http://www.w3.org/2000/svg">
    <path d="M12.0884 26.25C11.7394 26.25 11.3852 26.1562 11.0779 25.9791L7.86402 24.0779C7.3848 23.807 7.6192 23.7133 7.77547 23.6612C8.41615 23.4372 8.54638 23.3903 9.22874 22.9997C9.30166 22.958 9.39542 22.9736 9.46834 23.0205L11.9373 24.4842C12.0259 24.5363 12.1509 24.5363 12.2342 24.4842L21.855 18.9316C21.9435 18.8795 22.0008 18.7753 22.0008 18.6711V7.56585C22.0008 7.45647 21.9435 7.3575 21.8498 7.3002L12.2342 1.75278C12.1457 1.70069 12.0259 1.70069 11.9373 1.75278L2.32701 7.30541C2.23325 7.3575 2.17595 7.46168 2.17595 7.57106V18.6711C2.17595 18.7753 2.23325 18.8795 2.32701 18.9264L4.96269 20.4473C6.39512 21.161 7.27021 20.3223 7.27021 19.4733V8.51387C7.27021 8.3576 7.39522 8.2378 7.55149 8.2378H8.77036C8.92141 8.2378 9.05163 8.3576 9.05163 8.51387V19.4785C9.05163 21.3849 8.00986 22.4788 6.20239 22.4788C5.64505 22.4788 5.2075 22.4788 3.98863 21.8746L1.46755 20.4213C0.842486 20.0619 0.457031 19.3899 0.457031 18.6659V7.56585C0.457031 6.84703 0.842486 6.16988 1.46755 5.81047L11.0779 0.257838C11.6873 -0.085946 12.4947 -0.085946 13.0989 0.257838L22.7197 5.81568C23.3447 6.17509 23.7302 6.84703 23.7302 7.57106V18.6711C23.7302 19.3899 23.3447 20.0619 22.7197 20.4265L13.0989 25.9791C12.7916 26.1562 12.4426 26.25 12.0884 26.25ZM19.8548 15.3062C19.8548 13.2279 18.4484 12.6757 15.495 12.2851C12.5051 11.8892 12.203 11.6861 12.203 10.9881C12.203 10.4099 12.4582 9.63898 14.672 9.63898C16.6461 9.63898 17.3754 10.0661 17.6775 11.3996C17.7035 11.5246 17.8181 11.6183 17.9483 11.6183H19.1985C19.2766 11.6183 19.3495 11.5871 19.4016 11.5298C19.4537 11.4725 19.4798 11.3944 19.4745 11.3162C19.2818 9.01912 17.7556 7.95131 14.672 7.95131C11.9269 7.95131 10.2913 9.10767 10.2913 11.0506C10.2913 13.155 11.9217 13.7383 14.5522 13.9988C17.7035 14.3061 17.9483 14.7697 17.9483 15.3895C17.9483 16.4626 17.0837 16.9209 15.0574 16.9209C12.5103 16.9209 11.953 16.2803 11.7654 15.0145C11.7446 14.8791 11.63 14.7801 11.4894 14.7801H10.2445C10.0882 14.7801 9.96839 14.9051 9.96839 15.0562C9.96839 16.6761 10.8487 18.6086 15.0626 18.6086C18.1046 18.6034 19.8548 17.4002 19.8548 15.3062Z" fill="#EEEEEE"/>
</svg>
