<svg width="22" height="27" viewBox="0 0 22 27" fill="none" xmlns="http://www.w3.org/2000/svg">
<path fill-rule="evenodd" clip-rule="evenodd" d="M19.586 20.8214L7.79142 24.3077C7.43109 24.4143 7.08574 24.1028 7.16146 23.7396L11.375 3.5722C11.4538 3.19527 11.9754 3.13538 12.14 3.48463L19.9416 20.0419C20.0888 20.3542 19.9209 20.7225 19.586 20.8214ZM21.6087 19.999L12.5754 0.827839C12.4632 0.591765 12.2891 0.390037 12.0717 0.244823C11.8542 0.099608 11.6015 0.0159096 11.3403 0.00260262C10.7906 -0.0293896 10.2981 0.235572 10.0203 0.68654L0.223298 16.5453C0.0744626 16.7848 -0.0029659 17.0618 8.69115e-05 17.3438C0.00313973 17.6258 0.0865474 17.901 0.240534 18.1373L5.02945 25.5513C5.31488 25.9939 5.80941 26.25 6.32343 26.25C6.46912 26.25 6.61564 26.2295 6.75969 26.1868L20.6606 22.0779C20.8699 22.0166 21.0635 21.9112 21.2285 21.7686C21.3935 21.6261 21.5259 21.4499 21.6169 21.2518C21.7066 21.0549 21.7524 20.8408 21.751 20.6244C21.7496 20.408 21.701 20.1947 21.6087 19.999Z" fill="#EEEEEE"/>
</svg>
