<svg width="20" height="27" viewBox="0 0 20 27" fill="none" xmlns="http://www.w3.org/2000/svg">
    <path d="M8.53314 26.4833C6.076 26.3062 3.64744 25.6877 2.15803 24.8597C1.30966 24.3881 0.663318 23.8085 0.409691 23.292L0.258789 22.9846V13.3441V3.70354L0.378197 3.46109C0.91181 2.37771 2.61481 1.40104 4.99211 0.81503C5.79909 0.616092 6.96408 0.417981 7.9145 0.318081C8.88499 0.216044 11.4574 0.231568 12.4254 0.345456C14.9984 0.647743 17.1878 1.32449 18.5371 2.23458C19.0574 2.58554 19.5913 3.14712 19.7722 3.53367L19.9273 3.86509L19.914 13.4765L19.9008 23.0879L19.7763 23.3408C19.7078 23.4799 19.501 23.7535 19.3167 23.9489C18.1948 25.1382 15.7882 26.018 12.6317 26.3928C11.9883 26.4693 9.19322 26.5309 8.53314 26.4833ZM13.0613 18.2227C13.0518 18.198 12.6845 17.8708 12.245 17.4955C11.8055 17.1201 11.427 16.7954 11.4038 16.7738C11.3807 16.7523 11.4619 16.6759 11.5843 16.6042C11.7067 16.5324 11.9411 16.3329 12.1053 16.1607C12.5855 15.6572 12.8121 15.0352 12.8121 14.2205C12.8121 13.4184 12.5677 12.7713 12.0783 12.2773C11.5851 11.7794 11.0187 11.5654 10.194 11.5654C8.92272 11.5654 7.94638 12.3072 7.63476 13.5099C7.52756 13.9235 7.52813 14.7594 7.63588 15.1262C7.91691 16.0829 8.6823 16.7778 9.63486 16.941C9.95721 16.9962 10.0009 17.02 10.2206 17.2603C10.3513 17.4031 10.6193 17.6881 10.8162 17.8937L11.1744 18.2674H12.1264C12.6501 18.2674 13.0707 18.2473 13.0613 18.2227ZM9.79632 15.557C9.56712 15.4375 9.48047 15.3447 9.34977 15.079C9.24882 14.8738 9.23156 14.7571 9.23043 14.272C9.22931 13.7792 9.24499 13.6727 9.35039 13.4587C9.52283 13.1085 9.76047 12.9427 10.1281 12.9161C10.6398 12.879 10.9352 13.1301 11.09 13.7336C11.2798 14.4736 11.071 15.2603 10.6157 15.5214C10.3768 15.6583 10.0204 15.6738 9.79632 15.557ZM5.5764 16.9305C6.57457 16.7412 7.1412 16.1607 7.1412 15.3274C7.1412 14.5881 6.77538 14.1574 5.76434 13.706C5.18557 13.4476 4.97593 13.2855 4.97593 13.096C4.97593 12.9389 5.17488 12.7668 5.40648 12.7236C5.63261 12.6814 6.23238 12.7855 6.58655 12.9286L6.88343 13.0485V12.3914V11.7342L6.56121 11.6627C6.36207 11.6185 5.94362 11.592 5.46569 11.5934C4.78871 11.5934 4.65615 11.6099 4.40139 11.7111C3.65722 12.0065 3.30409 12.5097 3.30974 13.2668C3.31503 13.9754 3.68889 14.4175 4.61933 14.8152C5.16833 15.0498 5.38837 15.2285 5.38837 15.4396C5.38837 15.8883 4.64077 15.9435 3.84924 15.5533C3.63247 15.4464 3.43771 15.3503 3.41644 15.3396C3.39518 15.329 3.37778 15.636 3.37778 16.0218C3.37778 16.7202 3.37853 16.7236 3.50497 16.7717C3.98115 16.9528 5.03358 17.0334 5.5764 16.9305ZM16.9879 16.2826V15.6898H16.0858H15.1836V13.6534V11.617H14.3845H13.5854V14.2463V16.8755H15.2867H16.9879V16.2826ZM11.4201 5.89323C13.0081 5.78309 14.1984 5.57515 15.2458 5.22494C16.2893 4.87604 16.9057 4.45387 17.0436 3.99367C17.0967 3.81633 17.0929 3.74907 17.0187 3.55463C16.6858 2.68294 14.8261 2.01322 11.9843 1.74168C10.7688 1.62551 8.55806 1.66317 7.39903 1.81973C5.63052 2.05868 4.19528 2.50252 3.55711 3.00783C2.26617 4.03008 3.63135 5.15442 6.80611 5.68362C8.18268 5.91308 9.96612 5.99411 11.4201 5.89323Z" fill="#EEEEEE"/>
</svg>
