<svg width="11" height="11" viewBox="0 0 11 11" fill="none" xmlns="http://www.w3.org/2000/svg">
  <path fill="#D9D9D9" d="M8.5 5h2s0.5 0 0.5 0.5v0s0 0.5 -0.5 0.5h-2s-0.5 0 -0.5 -0.5v0s0 -0.5 0.5 -0.5" />
  <path transform="rotate(-90 5 11)" fill="#D9D9D9" d="M5.5 11h2s0.5 0 0.5 0.5v0s0 0.5 -0.5 0.5h-2s-0.5 0 -0.5 -0.5v0s0 -0.5 0.5 -0.5" />
  <path transform="rotate(-90 5 3)" fill="#D9D9D9" d="M5.5 3h2s0.5 0 0.5 0.5v0s0 0.5 -0.5 0.5h-2s-0.5 0 -0.5 -0.5v0s0 -0.5 0.5 -0.5" />
  <path transform="rotate(-45 6.43945 3.35352)" fill="#D9D9D9" d="M6.9395 3.3535h1s0.5 0 0.5 0.5v0s0 0.5 -0.5 0.5h-1s-0.5 0 -0.5 -0.5v0s0 -0.5 0.5 -0.5" />
  <path transform="rotate(-135 7.85352 9.06055)" fill="#D9D9D9" d="M8.3535 9.0605h1s0.5 0 0.5 0.5v0s0 0.5 -0.5 0.5h-1s-0.5 0 -0.5 -0.5v0s0 -0.5 0.5 -0.5" />
  <path transform="rotate(135 4.56055 7.64648)" fill="#D9D9D9" d="M5.0606 7.6465h1s0.5 0 0.5 0.5v0s0 0.5 -0.5 0.5h-1s-0.5 0 -0.5 -0.5v0s0 -0.5 0.5 -0.5" />
  <path transform="rotate(45 3.14648 1.93945)" fill="#D9D9D9" d="M3.6465 1.9395h1s0.5 0 0.5 0.5v0s0 0.5 -0.5 0.5h-1s-0.5 0 -0.5 -0.5v0s0 -0.5 0.5 -0.5" />
  <path fill="#D9D9D9" d="M0.5 5h2s0.5 0 0.5 0.5v0s0 0.5 -0.5 0.5h-2s-0.5 0 -0.5 -0.5v0s0 -0.5 0.5 -0.5" />
  <path fill="#D9D9D9" d="M4 5.5a1.5 1.5 0 1 0 3 0a1.5 1.5 0 1 0 -3 0" />
</svg>
