<svg width="28" height="27" viewBox="0 0 28 27" fill="none" xmlns="http://www.w3.org/2000/svg">
    <path d="M24.7656 4.12603L20.0357 1.84884C19.7686 1.72005 19.468 1.67755 19.1757 1.72723C18.8833 1.77691 18.6137 1.91631 18.4041 2.12611L2.92068 16.242C2.73282 16.4125 2.62037 16.6506 2.60806 16.904C2.59575 17.1574 2.6846 17.4052 2.85505 17.5931C2.87556 17.6152 2.89607 17.6366 2.91822 17.6563L4.18232 18.8047C4.3475 18.955 4.56012 19.0428 4.78325 19.0527C5.00638 19.0625 5.22593 18.994 5.40376 18.8588L24.0536 4.71665C24.1944 4.60976 24.3623 4.54431 24.5384 4.52767C24.7144 4.51102 24.8916 4.54385 25.05 4.62246C25.2084 4.70106 25.3418 4.82232 25.435 4.97258C25.5282 5.12285 25.5776 5.29615 25.5777 5.47298V5.41802C25.5777 5.14806 25.5015 4.88358 25.3578 4.65502C25.2141 4.42646 25.0089 4.2431 24.7656 4.12603Z" fill="#EEEEEE"/>
    <path d="M24.7656 22.1239L20.0357 24.4019C19.7685 24.5303 19.468 24.5726 19.1757 24.523C18.8835 24.4733 18.6138 24.3341 18.4041 24.1246L2.92068 10.0079C2.73282 9.83742 2.62037 9.59932 2.60806 9.34595C2.59575 9.09258 2.6846 8.8447 2.85505 8.65683C2.87556 8.63468 2.89607 8.61335 2.91822 8.59367L4.18232 7.44523C4.34767 7.29426 4.56077 7.20614 4.78446 7.19625C5.00814 7.18635 5.22819 7.25531 5.40623 7.39109L24.0536 21.5333C24.1944 21.6402 24.3623 21.7056 24.5384 21.7223C24.7144 21.7389 24.8916 21.7061 25.05 21.6275C25.2084 21.5489 25.3418 21.4276 25.435 21.2773C25.5282 21.1271 25.5776 20.9538 25.5777 20.7769V20.836C25.5768 21.1053 25.5002 21.3688 25.3566 21.5966C25.213 21.8243 25.0082 22.0071 24.7656 22.1239Z" fill="#EEEEEE"/>
    <path d="M20.0358 24.4019C19.7686 24.5303 19.4681 24.5726 19.1758 24.523C18.8836 24.4733 18.6139 24.3341 18.4042 24.1246C18.522 24.2409 18.6715 24.3198 18.8339 24.3515C18.9964 24.3832 19.1646 24.3662 19.3174 24.3027C19.4702 24.2392 19.6009 24.132 19.6931 23.9945C19.7853 23.857 19.8349 23.6954 19.8356 23.5299V2.72022C19.8357 2.55394 19.7865 2.39135 19.6942 2.25306C19.6018 2.11477 19.4705 2.007 19.3169 1.9434C19.1632 1.8798 18.9942 1.86323 18.8311 1.89579C18.668 1.92836 18.5183 2.00859 18.4009 2.12632C18.6105 1.9166 18.8801 1.77719 19.1724 1.72737C19.4647 1.67755 19.7652 1.71979 20.0325 1.84823L24.7616 4.12214C25.0056 4.23862 25.2117 4.42173 25.3561 4.65034C25.5006 4.87894 25.5774 5.14373 25.5778 5.41413V20.836C25.5779 21.1062 25.5016 21.3709 25.3578 21.5996C25.2139 21.8284 25.0084 22.0118 24.7649 22.1288L20.0358 24.4019Z" fill="#EEEEEE"/>
</svg>
